<svg width="37" height="37" viewBox="0 0 37 37" fill="none" xmlns="http://www.w3.org/2000/svg">
<g id="icons8-github 1">
<path id="Vector" d="M18.5 3.7002C10.3267 3.7002 3.70001 10.3269 3.70001 18.5002C3.70001 25.4352 8.47548 31.2381 14.9135 32.8439C14.8444 32.6441 14.8 32.4122 14.8 32.1248V29.5953C14.1994 29.5953 13.193 29.5953 12.9401 29.5953C11.9276 29.5953 11.0272 29.1599 10.5906 28.3508C10.1059 27.4517 10.0221 26.0766 8.82081 25.2354C8.46438 24.9555 8.73571 24.636 9.14641 24.6792C9.90491 24.8938 10.5339 25.4143 11.1259 26.1863C11.7154 26.9596 11.9929 27.1348 13.0943 27.1348C13.6283 27.1348 14.4275 27.1039 15.1799 26.9855C15.5844 25.9582 16.2837 25.0122 17.1384 24.5657C12.21 24.0588 9.85805 21.607 9.85805 18.2782C9.85805 16.8451 10.4685 15.4588 11.5058 14.2908C11.1654 13.1315 10.7374 10.7672 11.6365 9.86686C13.854 9.86686 15.1947 11.3049 15.5166 11.6934C16.6216 11.3148 17.8352 11.1002 19.1105 11.1002C20.3882 11.1002 21.6068 11.3148 22.7143 11.6959C23.0325 11.3099 24.3744 9.86686 26.5968 9.86686C27.4996 10.7684 27.0667 13.1426 26.7226 14.2995C27.7537 15.465 28.3605 16.8475 28.3605 18.2782C28.3605 21.6045 26.0122 24.0551 21.0912 24.5645C22.4454 25.2712 23.4333 27.2569 23.4333 28.7529V32.1248C23.4333 32.2531 23.405 32.3456 23.3902 32.4554C29.1572 30.4339 33.3 24.9579 33.3 18.5002C33.3 10.3269 26.6733 3.7002 18.5 3.7002Z" fill="black"/>
</g>
</svg>
