<svg width="34" height="34" viewBox="0 0 34 34" fill="none" xmlns="http://www.w3.org/2000/svg">
<g id="icons8-google 1">
<path id="Vector" d="M31.0578 14.3921H29.9167V14.3333H17.1667V20H25.173C24.0049 23.2987 20.8663 25.6667 17.1667 25.6667C12.4725 25.6667 8.66667 21.8608 8.66667 17.1667C8.66667 12.4725 12.4725 8.66667 17.1667 8.66667C19.3335 8.66667 21.3048 9.48408 22.8057 10.8193L26.8128 6.81225C24.2826 4.45421 20.8982 3 17.1667 3C9.34313 3 3 9.34313 3 17.1667C3 24.9902 9.34313 31.3333 17.1667 31.3333C24.9902 31.3333 31.3333 24.9902 31.3333 17.1667C31.3333 16.2168 31.2356 15.2896 31.0578 14.3921Z" fill="#FFC107"/>
<path id="Vector_2" d="M4.63339 10.5728L9.28785 13.9862C10.5473 10.8682 13.5974 8.66667 17.1666 8.66667C19.3334 8.66667 21.3047 9.48408 22.8057 10.8193L26.8127 6.81225C24.2826 4.45421 20.8981 3 17.1666 3C11.7252 3 7.00631 6.07204 4.63339 10.5728Z" fill="#FF3D00"/>
<path id="Vector_3" d="M17.1667 31.3332C20.8259 31.3332 24.1508 29.9328 26.6647 27.6555L22.2801 23.9453C20.8578 25.0226 19.0898 25.6665 17.1667 25.6665C13.4819 25.6665 10.3532 23.317 9.17453 20.0381L4.55478 23.5975C6.89936 28.1853 11.6608 31.3332 17.1667 31.3332Z" fill="#4CAF50"/>
<path id="Vector_4" d="M31.0578 14.3918H29.9167V14.333H17.1667V19.9997H25.1729C24.6119 21.5842 23.5927 22.9506 22.278 23.9458L22.2801 23.9444L26.6647 27.6546C26.3544 27.9366 31.3333 24.2497 31.3333 17.1663C31.3333 16.2165 31.2356 15.2893 31.0578 14.3918Z" fill="#1976D2"/>
</g>
</svg>
