<svg width="19" height="19" viewBox="0 0 19 19" fill="none" xmlns="http://www.w3.org/2000/svg">
<path d="M9.5 0C4.25819 0 0 4.25819 0 9.5C0 14.7418 4.25819 19 9.5 19C14.7418 19 19 14.7418 19 9.5C19 4.25819 14.7418 0 9.5 0ZM9.5 0.826087C14.2954 0.826087 18.1739 4.70464 18.1739 9.5C18.1739 14.2954 14.2954 18.1739 9.5 18.1739C4.70464 18.1739 0.826087 14.2954 0.826087 9.5C0.826087 4.70464 4.70464 0.826087 9.5 0.826087ZM9.5 3.71739C9.17136 3.71739 8.85618 3.84794 8.6238 4.08032C8.39142 4.31271 8.26087 4.62788 8.26087 4.95652C8.26087 5.28516 8.39142 5.60034 8.6238 5.83272C8.85618 6.0651 9.17136 6.19565 9.5 6.19565C9.82864 6.19565 10.1438 6.0651 10.3762 5.83272C10.6086 5.60034 10.7391 5.28516 10.7391 4.95652C10.7391 4.62788 10.6086 4.31271 10.3762 4.08032C10.1438 3.84794 9.82864 3.71739 9.5 3.71739ZM7.84783 7.84783V8.67391H8.26087H8.67391V14.0435H8.26087H7.84783V14.8696H8.26087H8.67391H10.3261H10.7391H11.1522V14.0435H10.7391H10.3261V7.84783H9.91304H8.26087H7.84783Z" fill="#A0A3BD"/>
</svg>
