<svg width="2454" height="2366" viewBox="0 0 2454 2366" fill="none" xmlns="http://www.w3.org/2000/svg">
<path d="M2452.5 1183C2452.5 1835.47 1903.88 2364.5 1227 2364.5C550.123 2364.5 1.5 1835.47 1.5 1183C1.5 530.527 550.123 1.5 1227 1.5C1903.88 1.5 2452.5 530.527 2452.5 1183Z" fill="black" stroke="black" stroke-width="3"/>
<path d="M719.975 561.233L1591.45 561.233C1753.58 561.233 1885.01 692.664 1885.01 854.791C1885.01 1000.2 1767.14 1118.07 1621.73 1118.07L719.975 1118.07L719.975 561.233Z" fill="white"/>
<path d="M719.975 1249.47L1591.45 1249.47C1753.58 1249.47 1885.01 1380.9 1885.01 1543.03C1885.01 1688.44 1767.14 1806.31 1621.73 1806.31L719.975 1806.31L719.975 1249.47Z" fill="white"/>
</svg>
