<svg width="25" height="25" viewBox="0 0 25 25" fill="none" xmlns="http://www.w3.org/2000/svg">
<path d="M4.06 0C1.82449 0 0 1.82449 0 4.06V20.3C0 22.5355 1.82449 24.36 4.06 24.36H20.3C22.5355 24.36 24.36 22.5355 24.36 20.3V4.06C24.36 1.82449 22.5355 0 20.3 0H4.06ZM4.06 1.16H20.3C21.9087 1.16 23.2 2.45127 23.2 4.06V20.3C23.2 21.9087 21.9087 23.2 20.3 23.2H4.06C2.45127 23.2 1.16 21.9087 1.16 20.3V4.06C1.16 2.45127 2.45127 1.16 4.06 1.16ZM5.26984 5.22L10.619 12.82L5.22 19.14H6.67L11.2737 13.7501L15.0664 19.14H19.6702L13.7977 10.7957L18.56 5.22H17.11L13.1429 9.86566L9.87359 5.22H5.26984ZM7.49016 6.38H9.26754L17.4498 17.98H15.6725L7.49016 6.38Z" fill="#A0A3BD"/>
</svg>
