<svg width="32" height="32" viewBox="0 0 32 32" fill="none" xmlns="http://www.w3.org/2000/svg">
<g id="icons8-wallet-96 1">
<path id="Vector" d="M27.8257 25.5443C27.834 26.7203 27.3972 27.0338 26.3196 27.0261C19.213 26.9753 12.1059 27.0049 4.99897 26.9965C2.99729 26.9942 2.33958 26.3354 2.33687 24.3328C2.33024 19.4468 2.34139 14.5608 2.36291 9.52174C2.98899 9.00813 3.37788 9.47886 3.78714 9.77168C4.27673 10.122 4.78054 10.3708 5.53973 10.3269C11.6923 10.2927 17.7027 10.4228 23.8741 10.2423C28.3718 10.1252 28.6083 10.3994 28.2028 15.2593C27.8675 16.3645 27.0594 16.3722 26.2817 16.4321C25.6724 16.4791 25.0686 16.3644 24.4634 16.3566C23.0888 16.3389 22.3624 17.0274 22.3486 18.2951C22.3335 19.6893 23.0346 20.3369 24.5171 20.313C25.7002 20.294 26.9474 19.8729 28.0457 20.9801C28.3713 22.5641 28.6389 24.0138 27.8257 25.5443Z" fill="#F57C00"/>
<path id="Vector_2" d="M5.11244 10.8467C3.84575 11.0429 3.09058 10.4582 2.46441 9.43936C2.23464 6.1946 2.72884 5.66764 5.86142 5.66718C12.3567 5.66622 18.852 5.65887 25.3472 5.67081C27.9585 5.67561 27.6323 5.42541 27.6667 8.13245C27.0485 9.41836 25.9272 9.14013 24.9955 9.10324C19.2766 8.8768 13.5569 9.06027 7.8381 9.01223C7.20966 9.00696 6.4735 8.77191 5.97149 9.6478C5.81447 10.1998 5.52004 10.4741 5.11244 10.8467Z" fill="#942A09"/>
<path id="Vector_3" d="M5.1604 9.7831C4.76486 8.45292 5.44498 8.31844 6.42788 8.32108C13.4041 8.33982 20.3805 8.32292 27.5118 8.2976C28.7279 8.17236 29.0681 8.64256 29.0223 9.69917C28.9415 11.5649 28.9998 13.4366 28.9997 15.4585C28.6939 16.0032 28.31 16.0114 27.7799 15.728C27.6695 14.8512 27.6678 14.0845 27.6667 13.3178C27.6635 11.0085 27.6635 11.0089 25.2851 10.9994C24.9565 10.9981 24.628 10.9908 24.1497 10.9654C23.1707 10.3424 22.2171 10.3117 21.245 10.3203C16.5943 10.3616 11.9434 10.3175 7.29254 10.3366C6.60769 10.3394 5.8323 10.5374 5.1604 9.7831Z" fill="#4CAF50"/>
<path id="Vector_4" d="M27.5175 15.6318C28.0259 15.6292 28.381 15.6404 28.8678 15.6314C30.0591 15.5105 30.4435 15.978 30.3507 17.0376C30.2648 18.0183 30.2883 19.0148 30.344 19.9998C30.3902 20.8163 30.0288 21.0835 29.1421 21.0336C28.668 21.3231 28.308 21.3955 27.7909 21.1321C26.511 21.0267 25.3479 21.051 24.192 20.971C22.6351 20.8632 21.6517 19.7472 21.6869 18.2349C21.7198 16.8251 22.7088 15.793 24.2156 15.6939C25.2616 15.625 26.3144 15.6581 27.5175 15.6318Z" fill="#BF370C"/>
<path id="Vector_5" d="M27.6694 21.1999C28.026 21.0377 28.3811 21.0265 28.8678 21.0354C28.9991 22.2528 28.9629 23.4515 29.0114 24.6468C29.0424 25.4099 28.7996 25.7785 27.8635 25.6662C27.7041 24.2281 27.6861 22.7895 27.6694 21.1999Z" fill="#4CAF50"/>
<path id="Vector_6" d="M5.03189 9.79364C10.7756 9.66712 16.4962 9.68499 22.2164 9.64762C23.0834 9.64196 23.696 9.78031 23.9406 10.8305C17.7702 10.9594 11.5405 10.9744 5.15549 10.9674C5.00299 10.6036 5.00578 10.2618 5.03189 9.79364Z" fill="#C8E6C9"/>
<path id="Vector_7" d="M23.0208 18.8886C22.8904 17.6623 23.1582 16.8606 24.4697 17.0878C25.0825 17.1939 25.5584 17.6885 25.5881 18.3085C25.6091 18.746 25.355 19.17 24.8144 19.4105C24.0681 19.7426 23.4731 19.8807 23.0208 18.8886Z" fill="#FEE8B0"/>
</g>
</svg>
